# xmcd CD database file
#
# Track frame offsets:
#	150
#	20275
#	41170
#	72755
#
# Disc length: 1241 seconds
#
# Revision: 2
# Processed by: cddbd v1.5.2PL0 Copyright (c) Steve Scherf et al.
# Submitted via: CDex 1.51
#
DISCID=2c04d704
DTITLE=RKS - goes on forever
DYEAR=2000
DGENRE=New Age
TTITLE0=goes on forever
TTITLE1=?
TTITLE2=goes on forever(piano/acoustic guitar version)
TTITLE3=goes on forever(for you)
EXTD=YEAR: 2000
EXTT0=
EXTT1=
EXTT2=
EXTT3=
PLAYORDER=
